<svg xmlns="http://www.w3.org/2000/svg" width="500" height="500"><defs><style>.cls-2{fill:#2fb228}.cls-3{fill:#fff}</style></defs><path d="M382.1 269.25c11.2 5.1 31.4 7.2 31.4 7.2s-15.2-15.9-14.4-25.6-2.2-22.7-2.2-22.7l22 8.3s-24.2-24.6-30.7-45.9-17.3-53.4-42.6-69.7c-14.8-27.4-35-54.2-35-54.2l-26.9-19.1-8.5 12.6-25.2-31.4-25.3 31.4-8.5-12.6-26.9 19.1s-20.2 26.7-35 54.2c-25.3 16.2-36.1 48.4-42.6 69.7S81 236.45 81 236.45l22-8.3s-2.9 13-2.2 22.7-14.4 25.6-14.4 25.6 20.2-2.2 31.4-7.2c-4 6.5-22 20.9-48 15.5 6.9 9.4 31.8 14.1 45.1 8.7-9 11.2 0 44.8 0 49.8s.4 15.5-13 26c20.9 10.8 44.8-9 44.8-9s5.4 19.1 5.4 24.2-2.9 6.1 0 22.4a71 71 0 0 0 12.3 28.2l19.5 9s-2.2-18.8 3.2-23.1c4 11.2 14.1 24.6 14.1 24.6s18.8 14.1 31.8 21.7c-6.5-7.9-11-30-11-30l28 30 28-30s-4.5 22-11 30c13-7.6 31.8-21.7 31.8-21.7s10.1-13.4 14.1-24.6c5.4 4.3 3.2 23.1 3.2 23.1l19.5-9a70.16 70.16 0 0 0 12.3-28.2c2.9-16.2 0-17.3 0-22.4s5.4-24.2 5.4-24.2 23.8 19.9 44.8 9c-13.4-10.5-13-20.9-13-26s9-38.6 0-49.8c13.4 5.4 38.3.7 45.1-8.7-26 5.4-44.1-9-48.1-15.5z" fill="#09226b"/><path class="cls-2" d="M378.9 209.65c-9.4-24.2-32.9-44.4-32.9-44.4l-21.7-26.4-42.2 18.4 32.5-30.7-27.8-43.3L273.1 106 250 66.65l-23.1 39.4-13.7-22.7-27.8 43.3 32.5 30.7L175.7 139 154 165.35s-23.5 20.2-32.9 44.4c10.5-6.1 13.4-8.3 13.4-8.3l-9.4 56.7 44-44.8 15.5-33.2 50.9 22.7h28.9l50.9-22.7 15.5 33.2 44 44.8-9.4-56.7c.1-.1 3 2.1 13.5 8.2z"/><path class="cls-2" d="M361.9 278.25c-4.3-7.6-20.2-20.2-20.2-20.2l-28.9-15.2-27.1 8.3 18.8-22.4-40.8-16.2-13.7 10.5-13.7-10.5-40.8 16.2 18.8 22.4-27.1-8.3-28.9 15.2s-15.9 12.6-20.2 20.2a57.08 57.08 0 0 1 21.3-7.2s-19.1 39-19.9 65.7c29.2-36.5 64.6-73.7 64.6-73.7l45.9 11.6 45.9-11.6s35.4 37.2 64.6 73.7c-.7-26.7-19.9-65.7-19.9-65.7a57.08 57.08 0 0 1 21.3 7.2zm-102.5-27.4h-18.8l-15.9-18.1h12.6l12.6 8.7 12.6-8.7h12.6z"/><path class="cls-3" d="M283.9 274.65l-33.9 9.7-34-9.7-22 14.4v34.3l16.3-24.3-1.8-11.8 13.5 14.5 8.1-6.5 10.1 10.1 9.8-8.3 9.7 8.3 10.1-10.1 8.2 6.5 13.5-14.5-1.8 11.8 16.3 24.3v-34.3l-22.1-14.4zM275.3 369.55c-10.5 6.1-25.3 5.3-25.3 5.3s-14.8.9-25.3-5.3S205.9 353 205.9 353v18.8l5.1 9.4 4.3-4.3 34.7 16.6 34.7-16.6 4.3 4.3 5.1-9.4V353c-.1 0-8.4 10.45-18.8 16.55z"/><path class="cls-2" d="M317.1 360.25c-6.5 14.8-25.6 27.4-25.6 27.4l-41.5 12.6-41.5-12.6s-19.1-12.6-25.6-27.4c-.7 8.7 0 23.1 0 23.1s20.9 20.6 46.9 22c-9 3.2-28.9 0-28.9 0s20.6 21.3 49.1 22c28.5-.7 49.1-22 49.1-22s-19.9 3.2-28.9 0c26-1.4 46.9-22 46.9-22s.8-14.5 0-23.1z"/><path class="cls-3" d="M216.9 206.25l-27.1-11.9-3.2 13.7s22.8 2.95 30.3-1.8zM283.1 206.25l27.1-11.9 3.2 13.7s-22.9 2.95-30.3-1.8z"/></svg>
