<svg id="washington" xmlns="http://www.w3.org/2000/svg" width="500" height="500"><defs><style>.cls-1{fill:#003768}.cls-2{fill:#fff}</style></defs><path class="cls-1" d="M251.94 38l-1.72-.45-198.61 52 .49 5.7C60 186.53 85 313.23 159.65 398.29c45.27 51.57 87 63.26 88.81 63.74l1.76.47 1.78-.5c1.75-.47 43.42-12.16 88.59-63.73C415.07 313.2 440.06 186.5 447.91 95.2l.49-5.7z"/><path class="cls-2" d="M59.21 94.78c27.21 316.83 190.85 361 190.85 361s164.07-44.16 191.28-361L250.06 44.65z"/><path d="M250.09 440.54S113.77 405.89 91.05 116l159-43.28L409.5 116c-21.66 288.91-159.41 324.54-159.41 324.54z" fill="#990034"/><path class="cls-1" d="M250.06 91.55l137.78 38.86q-1.9 25.41-5 47.91c-14 11.27-72.95 58.42-132.76 58.42-57.5 0-114.23-43.76-130.94-57q-3.25-23.17-5.35-49.37z"/><path class="cls-2" d="M250.06 236.74c59.81 0 118.8-47.15 132.76-58.42q-1.6 11.76-3.5 22.78c-9.45 7.89-68.92 57.13-129.26 57.13-57.14 0-113.48-44.32-127.34-55.55q-1.93-11.07-3.6-22.9c16.71 13.22 73.44 56.96 130.94 56.96z"/><path class="cls-2" d="M250.06 272.89c56.94 0 113.1-47.68 127.19-60.38q-3.06 16.05-6.69 30.47c-23.78 18.79-71.87 51.22-120.5 51.22-47.28 0-94-30.64-118.46-49.62q-3.61-14.34-6.73-30.29c16.82 14.8 70.65 58.6 125.19 58.6zM348.16 309.82v-34.06a316.36 316.36 0 0 0 16.65-11.75 393.21 393.21 0 0 1-16.65 45.81zM330.42 344.24a233.2 233.2 0 0 1-17.55 25.29v-74.07c6.09-2.78 12-5.8 17.55-8.91zM152.72 308.27a402.5 402.5 0 0 1-15.35-42.71c4.58 3.4 9.73 7 15.35 10.7zM187.25 368.36a236.24 236.24 0 0 1-17.55-26.13v-55.68c5.58 3.11 11.45 6.13 17.55 8.91zM250.06 121.31l10.79 33.22h34.92l-28.25 20.52 10.79 33.21-28.25-20.52-28.25 20.52 10.79-33.21-28.25-20.52h34.92l10.79-33.22zM222.27 307.57v77a135.45 135.45 0 0 0 15.92 9.43c.54-12.1 3.23-75.37 3.23-75.37l8.64-9 8.64 9s2.64 63.27 3.18 75.37a135.45 135.45 0 0 0 15.92-9.44v-77c3.82-.54 17.58-5.05 17.58-5.05v86.17c-23.22 21.95-42.57 27.72-45.34 28.46-2.78-.74-22.13-6.51-45.35-28.46v-86.16s13.76 4.48 17.58 5.05z"/></svg>
